<svg id="Layer_1" data-name="Layer 1" xmlns="http://www.w3.org/2000/svg" viewBox="0 0 422.16 481.34"><defs><style>.cls-1{fill:#fff;}</style></defs><path class="cls-1" d="M208,108.6a54.3,54.3,0,1,0-54.3-54.3A54.3,54.3,0,0,0,208,108.6"/><path class="cls-1" d="M1.82,145.41c-.73,9.12.11,9.24,2.82,13.33,1.81,2.71,9.34,9.82,10.74,11,12,10,21.29,21,35.76,26.41C64.06,201,71.65,206,84.3,213.62c10.15,6.09,12.93,9.7,19.25,20.1,3.53,5.21,9.47,12,25.58,30.86,10.85,12.31,34.31,29.92,44.42,39.27,12.95,12,56.11,32.8,56.33,33.38,8.79,5.45,15.52,5.51,23.71-.2,14.52-10.11,7.57-11.38,21.73-22C285.6,307.3,294.65,292.25,307,289c1.8-.48,3.61-1,5.38-1.56a35,35,0,0,0,15-9.72c2-2.15,3.92-4.31,5.81-6.52,9.45-11.08,18.52-22.5,28.3-33.28,9.29-10.26,22.11-16.23,32.45-25.3,10.54-9.25,21.36-9.62,21.69-24.4.28-12.18.16-24.37.17-36.56a56.62,56.62,0,0,0-3.06-18.08c-2.28-6.78-4.52-6-9.36-4.73-13.22,5.31-20.75,16.59-29,27.23a236.71,236.71,0,0,1-22.91,25.83c-5.68,5.44-9.17,12.53-13.69,18.84-9.5,13.28-19.89,23.35-24.36,38.8-2.53,8.78-9.86,11.27-16.43,17.13-24.13,21.51-24.4,27.81-43.48,42.39a15.09,15.09,0,0,1-19.12-.47c-3-1.74-4.79-4.79-7.14-7.22-14.08-14.56-51.24-30.64-68.27-41-14.42-8.8-28.88-13-37.95-27.84-13.7-22.42-30-42-44.14-64.09A99.83,99.83,0,0,0,59.14,137.6C49.72,129.24,40,114.47,30.51,107a11.75,11.75,0,0,0-6.22-2.51c-7.86-.69-19.44,7.34-22.38,14.85-3.08,7.87.58,17.59-.09,26"/><path class="cls-1" d="M76.85,118.49c10.51,7.36,15.86,17.54,20.52,28.7,3.18,7.61,6.85,15,10.3,22.5,6.19,9.29,12.43,18.55,18.56,27.88,4.46,6.8,32,19.13,37.79,24.91,13.91,13.92,19,16.45,32.89,27.84,8.86,7.24,12.5,11,27.07,18a37.07,37.07,0,0,0,39.79-4.94c15.47-12.95,29.52-32.25,32.19-36.56,5.64-9.12,16-19,21.16-28.35,7.67-13.93,10.41-27.26,20.68-39.55C351.11,143,368,131,383.54,117.55c9.15-7.89,10.63-18.16-1.16-25.56-10-6.29-10.23-5.52-20.76-10.76-10.1-5-16.45-12.09-22.28-3.55-5.27,7.73-8.76,11.3-15.16,17.56-5.31,5.19-10.85,10.12-15.71,15.77-7.89,9.18-13.54,28.94-19.19,39.34-9.91,18.26-17.48,26.9-28.79,44.27-4.26,7.06-8.35,14.24-12.86,21.14-3.44,5.26-11.48,6.16-16.27,1.3-11-11.18-45.54-17.41-57.49-27.35-6.56-5.45-8.59-6.46-13.65-14.05-2.95-4.43-29.72-31.41-38-43-8-7.89-18.92-19.92-21.71-31.19-1.39-5.65-4.1-10.83-6.72-16A40.63,40.63,0,0,0,81.32,70.74c-8.07-5.84-15.55-1.63-22.67,2.92-9.11,5.82-13.33,15-11.29,23.64a9.43,9.43,0,0,0,5.12,6.15c8.58,4.23,16.48,9.52,24.37,15"/><path class="cls-1" d="M418.29,238.06h0c-.32-3.05-1.13-5.63-2.74-7.26a5.19,5.19,0,0,0-4.16-.85c-8.58,2.16-16.81,5.1-23.46,11.21-6.47,6-20.06,25-25.19,32.15-9.17,12.84-35.76,33.76-36.6,34.72-9.48,10.81-10.89,14.14-24.21,19.47-12.65,5.06-26.13,25.52-30.36,27.84-7,6.42-20.25,12.65-27.84,15.18-4.87,1.62-14-.09-18.48-5-9.36-10.17-32.71-14.7-39.72-25.36-6.8-9.28-16.38-16-25.76-22.47-13.51-9.37-28.62-14.09-35.71-28.77-1.83-3.79-9.63-16.76-11.39-19.63C105.47,257.56,95.73,249,81.85,247c-16.6-2.46-20.32-18.14-37.69-30.2C34.47,210,20.52,193.51,9.75,188.67l-.19-.08A7,7,0,0,0,0,195c0,1,0,1.73,0,1.73v8.41a18.44,18.44,0,0,0,2.59,9.65,15.82,15.82,0,0,0,2,2.65c16.45,19,34,29.67,53.36,45,12,9.55,23.08,20,31.71,32.8a70.54,70.54,0,0,0,23.63,22.24c15.48,8.87,30.67,18.13,41.22,33.14,9.79,8.74,18.72,18.79,29.59,25.86,11.15,7.25,18.23,17.78,26.85,27,7.47,8,16.11,6.9,24.71,5.08,21.13-4.51,35.65-20.9,52.36-34.27,17.36-13.9,38.54-21.88,60-29.08,6.7-2.24,10.15-7.75,13.17-13.62,3.12-6.06,6.23-12.12,9.4-18.15,4.49-8.55,13.09-11.6,21.08-15.35,2.22-1,7.27-2.88,11.3-4.44a37.12,37.12,0,0,0,5.62-2.45v0a15,15,0,0,0,7.32-7.48,23.66,23.66,0,0,0,2.34-10.54l.06-26.71c.19-2.62-.06-8.46-.06-8.46"/><path class="cls-1" d="M142.67,418.22c-15.25-8.85-22.68-13-33.78-26.54-2.15-2.62-10.21-10-11.73-11.47C78.84,363,54.48,351.8,31.46,356.31a19.26,19.26,0,0,0-2.87,1.1l-.15.09c-3.69,2.29-3.28,7.82.55,9.87.77.41,1.49.78,1.88,1,19.44,12,40,22,59.65,33.63,16.22,9.6,32.58,19,48.94,28.33,12,6.88,24.2,13.57,36.3,20.35,3.27-2-.18-8.18-2.37-10.41-9-9.13-19.8-15.73-30.72-22.07"/><path class="cls-1" d="M416.08,309.32v-.05h0a2.68,2.68,0,0,0-2.44-2.29c-4.88-.28-9.26,1-13.65,2.78-6.23,3-18.34,15.32-21.81,21.19-2.72,4.62-6,9-8.16,13.84-5.45,12-15.87,18.11-26.87,23.5-15.32,7.5-31.15,13.95-45.91,22.55-9.69,5.65-18.46,12.71-28.16,18.37-13.39,7.82-17.75,11.93-31.67,18.25-7.13,3.24-20,10.44-30.36,2.53-21.51-16.45-30.89-33.83-51.88-51.88a106.8,106.8,0,0,0-22.78-15.18c-5.7-2.85-15.86-8.18-20.24-12.65-11.92-12.18-23.64-23.13-35.43-35.43-4.06-4.23-15.18-22.78-30.26-33.57-9.08-6.5-17.46-14-24.18-23.09A36,36,0,0,0,13,249a17.47,17.47,0,0,0-4.33-1.45c-8.62-1-8.57,5.93-8.57,5.93v33.4A39.07,39.07,0,0,0,9.39,312.2a103.37,103.37,0,0,0,7.49,7.87C29,331.66,44,334.14,58.52,342.1c6.31,3.45,42.1,19.77,51.09,28.42,6.42,6.19,13.21,9.64,19,16.48,8.46,9.92,20.43,21.19,31.38,25.05a64.63,64.63,0,0,1,25.16,15.59c7.74,8,8.24,9.85,10.2,14.94,3,7.72,6.05,15.37,10.36,22.51.39.64.79,1.25,1.21,1.82,6.24,10.34,21.6,2.31,21.6,2.31L385.31,364.63l.77-.47a53.66,53.66,0,0,0,7.86-5.29l.18-.12h0c14.11-11,18.84-26.89,19.11-27.42h0a.28.28,0,0,0,.08-.11c2.52-6.25,3.12-7,3.12-10.87V312a11.21,11.21,0,0,0-.34-2.69"/><path class="cls-1" d="M324.87,56.46c-11.54-6.06-6.43-2.32-21.67-11.12-7.33-4.24-12.79,2.73-15,11.13a48.6,48.6,0,0,1-5,11.81c-5.81,10.2-7.55,21.62-14.94,30.29a43.82,43.82,0,0,1-5.47,5.52,74.34,74.34,0,0,1-8.32,7.84,48.22,48.22,0,0,0-8.23,15.65c-3.37,9.54-7.16,11.48-12.69,15a30.21,30.21,0,0,1-28,2.47c-12.91-5.48-50-38-50.44-38.82A73.81,73.81,0,0,1,133.88,54.3c0-2.51-.4-10.56-1.49-12.76-2.53-5.06-2.53-5.06-8.2-2.21-1.54.77-18.57,9.46-22.17,12.33C97.1,55.58,97,60.81,99.87,65.5c3.54,5.68,4.5,7.51,9.54,12,6.77,4.71,17.8,22.57,18.79,25.3,5.33,14.63,15.11,25.67,27.6,34.83,6,4.41,9.89,10.76,14.47,16.4,10.15,12.49,24,18.8,35.25,30.26,9.11,7.81,14.16,7.43,19.43,7.45a18.49,18.49,0,0,0,12.09-5c9.66-12.92,11.81-10.9,19.53-25q7.23-13.23,14.4-26.5c33.5-38,45.12-59.59,54.51-66.73,6.38-4.84,3-10.49-.61-12"/></svg>